<svg height="512" viewBox="0 0 74 74" width="512" xmlns="http://www.w3.org/2000/svg"><g id="Numbers"><text fill="rgb(0,0,0)" font-family="ArialMT, Arial" font-size="18" transform="translate(31.995 -17.877)">6<tspan x="-5.005" y="124">16</tspan><tspan x="-5.005" y="248">26</tspan><tspan x="-5.005" y="372">36</tspan><tspan x="-5.005" y="496">46</tspan><tspan x="-5.005" y="620">56</tspan><tspan x="-5.005" y="744">66</tspan><tspan x="-5.005" y="868">76</tspan><tspan x="-5.005" y="992">86</tspan><tspan x="-5.005" y="1116">96</tspan><tspan x="-10.011" y="1240">106</tspan><tspan letter-spacing="-.074em" x="-9.343" y="1364">1</tspan><tspan x="-.668" y="1364">16</tspan><tspan x="-10.011" y="1488">126</tspan><tspan x="-10.011" y="1612">136</tspan><tspan x="-10.011" y="1736">146</tspan><tspan x="-10.011" y="1860">156</tspan><tspan x="-10.011" y="1984">166</tspan><tspan x="-10.011" y="2108">176</tspan><tspan x="-10.011" y="2232">186</tspan><tspan x="-10.011" y="2356">196</tspan><tspan x="-10.011" y="2480">206</tspan><tspan x="-10.011" y="2604">216</tspan><tspan x="-10.011" y="2728">226</tspan><tspan x="-10.011" y="2852">236</tspan><tspan x="-10.011" y="2976">246</tspan><tspan x="-10.011" y="3100">256</tspan><tspan x="-10.011" y="3224">266</tspan><tspan x="-10.011" y="3348">276</tspan><tspan x="-10.011" y="3472">286</tspan><tspan x="-10.011" y="3596">296</tspan></text></g><g id="Icons"><path d="m33.03 60.01h-2.9a1 1 0 0 1 0-2h2.9a1 1 0 0 1 0 2z"/><path d="m71 60.01h-21a1 1 0 0 1 0-2h20v-42h-66v42h19.13a1 1 0 1 1 0 2h-20.13a1 1 0 0 1 -1-1v-44a1 1 0 0 1 1-1h68a1 1 0 0 1 1 1v43.99a1.008 1.008 0 0 1 -1 1.01z"/><path d="m43 60.01h-2.97a1 1 0 0 1 0-2h2.97a1 1 0 0 1 0 2z"/><path d="m37.008 41.332a14.649 14.649 0 0 1 -9.685-3.632l-24.983-21.938a1 1 0 1 1 1.32-1.5l24.984 21.931a12.707 12.707 0 0 0 16.73 0l24.966-21.934a1 1 0 0 1 1.32 1.5l-24.966 21.935a14.647 14.647 0 0 1 -9.686 3.638z"/><path d="m71 60a1 1 0 0 1 -.66-.249l-25.04-21.99a1 1 0 0 1 1.32-1.5l25.04 21.988a1 1 0 0 1 -.66 1.751z"/><path d="m3 60a1 1 0 0 1 -.66-1.751l25.04-22a1 1 0 1 1 1.32 1.5l-25.04 22a1 1 0 0 1 -.66.251z"/></g></svg>