<?xml version="1.0" encoding="iso-8859-1"?>
<!-- Generator: Adobe Illustrator 19.0.0, SVG Export Plug-In . SVG Version: 6.00 Build 0)  -->
<svg version="1.1" id="Capa_1" xmlns="http://www.w3.org/2000/svg" xmlns:xlink="http://www.w3.org/1999/xlink" x="0px" y="0px"
	 viewBox="0 0 512 512" style="enable-background:new 0 0 512 512;" xml:space="preserve">
<g>
	<g>
		<path d="M433.484,177.484C433.484,79.619,353.865,0,256,0S78.516,79.619,78.516,177.484c0,40.031,28.081,106.003,83.462,196.086
			c28.609,46.534,57.501,87.933,72.14,108.421h-62.642V512h169.049v-30.009h-62.642c14.639-20.487,43.531-61.886,72.14-108.421
			C405.403,283.487,433.484,217.514,433.484,177.484z M256,461.105c-50.19-70.279-147.474-219.693-147.474-283.621
			C108.524,96.166,174.682,30.009,256,30.009s147.476,66.157,147.476,147.475C403.476,241.382,306.189,390.815,256,461.105z"/>
	</g>
</g>
<g>
	<g>
		<path d="M256,83.64c-50.228,0-91.093,40.865-91.093,91.093c0,50.228,40.864,91.093,91.093,91.093
			c50.229,0,91.093-40.865,91.093-91.093C347.093,124.504,306.229,83.64,256,83.64z M256,235.818
			c-33.682,0-61.085-27.403-61.085-61.085c0-33.683,27.403-61.085,61.085-61.085c33.682,0,61.084,27.402,61.084,61.085
			C317.084,208.415,289.682,235.818,256,235.818z"/>
	</g>
</g>
<g>
</g>
<g>
</g>
<g>
</g>
<g>
</g>
<g>
</g>
<g>
</g>
<g>
</g>
<g>
</g>
<g>
</g>
<g>
</g>
<g>
</g>
<g>
</g>
<g>
</g>
<g>
</g>
<g>
</g>
</svg>
