<?xml version="1.0" encoding="utf-8"?>
<svg xmlns="http://www.w3.org/2000/svg"
    viewBox="0 0 477.6 477.6">

    <path
        d="M121.1,180.2c-1.2-0.5-2.3-1.1-3.3-1.9c-9.9-9.8-19.7-19.6-29.5-29.4c-4.8-4.9-7.7-10.7-7.5-17.7 c0.3-12.5,10.3-20,22.5-17.2c5.1,1.2,9.7,3.9,13.3,7.7c12.2,12.2,24.5,24.4,36.6,36.7c1,1.4,3,1.7,4.4,0.8 c34.5-15.3,70.5-19.8,107.8-15.1c18.4,2.4,36.4,7.5,53.4,15.2c2.6,1.2,4.1,0.9,6.1-1.2c11.6-12.3,23.4-24.4,35-36.6 c4.9-5.2,10.6-8.4,17.8-8.7c11-0.4,19.7,10.6,17.6,22.1c-1,5.4-3.7,10.3-7.6,14c-9.8,9.7-19.5,19.5-29.3,29.2c-0.9,0.8-1.9,1.4-3,2 c4.2,3.4,7.7,6.2,11.1,9.1C400.2,218,421.9,254,431.7,297c2.2,10,3.6,20.1,4.3,30.2c1.1,16.4-11.9,31.2-30.4,30.9 c-3.6-0.1-7.2,0-10.8,0c-107.5,0-214.9,0-322.4,0.1c-10.8,0-19.7-3.2-26.4-11.9c-4.4-5.7-6.4-12.9-5.7-20 c3-40.6,17.2-76.9,42.2-108.9c9.9-12.7,21.5-24,34.3-33.7C117.8,182.8,118.9,182,121.1,180.2z M81.1,318.2h314 C387.3,250.1,326.4,182.6,239,182C155.1,181.4,90.3,244.6,81.1,318.2L81.1,318.2z"
        fill="#FF7B89"/>
    <path
        d="M313,290.8c-14.2-0.2-25.6-11.9-25.3-26.1c0.2-14.2,11.9-25.6,26.1-25.3c14.2,0.2,25.6,11.9,25.3,26.1 c0,0.1,0,0.2,0,0.3C338.7,279.8,327.1,291,313,290.8z"
        fill="#FF7B89"/>
    <path
        d="M164.6,290.8c-14.2-0.2-25.6-11.8-25.4-26s11.8-25.6,26-25.4c14.2,0.2,25.6,11.8,25.4,26 C190.4,279.6,178.8,290.9,164.6,290.8z"
        fill="#FF7B89"/>
</svg>
