<?xml version="1.0" encoding="iso-8859-1"?>
<!-- Generator: Adobe Illustrator 19.0.0, SVG Export Plug-In . SVG Version: 6.00 Build 0)  -->
<svg version="1.1" id="Capa_1" xmlns="http://www.w3.org/2000/svg" xmlns:xlink="http://www.w3.org/1999/xlink" x="0px" y="0px"
	 viewBox="0 0 464 464">
<g>
	<g>
		<path d="M424,144h-24.808c-3.72-18.232-19.872-32-39.192-32H40c-22.056,0-40,17.944-40,40v160c0,22.056,17.944,40,40,40h320
			c19.312,0,35.472-13.768,39.192-32H424c22.056,0,40-17.944,40-40v-96C464,161.944,446.056,144,424,144z M384,312
			c0,13.232-10.768,24-24,24H40c-13.232,0-24-10.768-24-24V152c0-13.232,10.768-24,24-24h320c13.232,0,24,10.768,24,24V312z
			 M448,280c0,13.232-10.768,24-24,24h-24V160h24c13.232,0,24,10.768,24,24V280z"
		fill="#FF7B89"/>
	</g>
</g>
<g>
	<g>
		<path d="M301.656,178.344c-3.128-3.128-8.184-3.128-11.312,0L232,236.688l-26.344-26.344c-3.128-3.128-8.184-3.128-11.312,0
			l-64,64c-3.128,3.128-3.128,8.184,0,11.312c1.56,1.56,3.608,2.344,5.656,2.344c2.048,0,4.096-0.784,5.656-2.344L200,227.312
			l26.344,26.344c3.128,3.128,8.184,3.128,11.312,0l64-64C304.784,186.528,304.784,181.472,301.656,178.344z"
			fill="#FF7B89"/>
	</g>
</g>
<g>
	<g>
		<path d="M104.008,144H72c-12.328,0-22.168,3.752-29.264,11.144C31.416,166.944,31.976,183.632,32,184v32c0,4.424,3.576,8,8,8
			s8-3.576,8-8v-32.288c0-0.104-0.24-10.776,6.36-17.568C58.328,162.064,64.248,160,72,160h32.008c4.416,0,8-3.576,8-8
			S108.424,144,104.008,144z"
			fill="#FF7B89"/>
	</g>
</g>
<g>
	<g>
		<path d="M360,144c-4.424,0-8,3.576-8,8v160c0,4.424,3.576,8,8,8s8-3.576,8-8V152C368,147.576,364.424,144,360,144z"
		fill="#FF7B89"/>
	</g>
</g>
<g>
	<g>
		<path d="M72,304c-7.472,0-13.256-2.024-17.208-6.008C48.016,291.16,48,280.344,48,280.128c0.072-4.4-3.432-8.032-7.832-8.128
			c-4.424-0.12-8.072,3.424-8.168,7.832c-0.016,0.712-0.224,17.52,11.28,29.272C50.36,316.336,60.024,320,72,320
			c4.424,0,8-3.576,8-8S76.424,304,72,304z"
			fill="#FF7B89"/>
	</g>
</g>
<g>
</g>
<g>
</g>
<g>
</g>
<g>
</g>
<g>
</g>
<g>
</g>
<g>
</g>
<g>
</g>
<g>
</g>
<g>
</g>
<g>
</g>
<g>
</g>
<g>
</g>
<g>
</g>
<g>
</g>
</svg>
