<?xml version="1.0" encoding="utf-8"?>
<svg xmlns="http://www.w3.org/2000/svg"
    viewBox="0 0 480 480">

    <path
        d="M107.7,91.9c3.9,1.1,8,1.8,11.7,3.3c10.5,4,21,8.3,31.4,12.6c2,1,4.3,0.7,6-0.6c3.3-2.2,7-4,10.3-6.2 c1.3-0.8,2.2-2.1,2.5-3.6c1.8-11.8,3.4-23.5,5-35.3c1.9-13.7,13.3-24.6,27.1-24.8c25.5-0.3,51-0.3,76.5,0 c13.7,0.2,24.6,10.4,26.9,24.2c1.9,11.6,3.5,23.3,5,35c0.1,2.1,1.4,3.9,3.3,4.8c3.6,1.9,7.2,3.9,10.6,6.2c1.4,1,3.2,1.2,4.7,0.5 c10.6-4.3,21.3-8.6,32-12.8c14.9-5.9,29.6-0.8,37.6,13c11.8,20.2,23.5,40.5,35.2,60.7c8.5,14.7,5.5,29.8-7.8,40.2 c-8.8,6.8-17.5,13.7-26.2,20.5c-1.5,1-2.3,2.8-2.1,4.5c0.2,4.3,0.2,8.6,0,12.9c-0.2,1.8,0.6,3.5,2.1,4.5 c8.8,6.8,17.5,13.6,26.2,20.5c13.5,10.6,16.4,25.3,7.8,40.2c-11.7,20.3-23.5,40.7-35.2,61c-7.9,13.6-22.2,18.6-36.8,12.9 c-10.6-4.1-21.2-8.4-31.7-12.7c-2.1-1-4.5-0.8-6.3,0.6c-3.2,2.1-6.4,4.1-9.8,5.8c-1.7,0.8-2.9,2.4-3,4.3 c-1.5,11.3-3.1,22.6-4.8,33.9c-2,14.2-13.4,25-27.7,25.2c-25.3,0.3-50.6,0.3-75.9,0c-13.8-0.2-25-10.2-27.3-23.8 c-2-11.8-3.5-23.7-5.1-35.6c-0.1-2-1.3-3.8-3.2-4.5c-3.7-1.9-7.2-4.4-10.9-6.3c-1.4-0.7-2.9-0.8-4.4-0.4c-11,4.2-21.9,8.7-32.9,13 c-11.8,4.6-24.1,1.9-32.4-7.1c-1.7-1.9-3.2-4.1-4.5-6.3c-11.7-20.1-23.3-40.3-34.9-60.5c-8.3-14.4-5.3-29.6,7.7-39.8 c8.9-7,17.8-13.9,26.8-20.8c1.5-1,2.3-2.7,2.1-4.5c-0.2-4.2-0.2-8.4,0-12.6c0.2-1.8-0.5-3.5-2-4.6c-8.9-6.8-17.7-13.8-26.5-20.7 C41,197.9,38.2,183.8,47,168.5c12-20.8,24-41.5,36.1-62.3C88,97.9,97.8,92.3,107.7,91.9z M395.4,182.3c-8.8-15.2-17.4-30.1-26-45 c-1.2-2.1-2.2-2.5-4.4-1.6c-14,5.7-28,11.3-42,17c-1.7,0.7-3,0.8-4.6-0.5c-12.2-10.3-26-18.4-41-23.9c-1.7-0.5-2.9-2.1-3-3.9 c-2.1-14.8-4.3-29.7-6.4-44.5c-0.3-2.5-1.2-3.3-3.7-3.2c-16.1,0.1-32.2,0.1-48.3,0.1H213c-0.2,1.2-0.4,2.2-0.6,3.2 c-2.2,14.8-4.3,29.7-6.5,44.5c-0.2,1.7-0.6,3-2.5,3.6c-15.4,5.3-28.9,13.9-41.6,24c-1.3,1.2-3.3,1.5-4.9,0.6c-13.9-5.7-27.8-11.2-41.7-16.9c-2.2-0.9-3.3-0.6-4.5,1.5c-8.1,14.1-16.3,28.2-24.5,42.3c-0.4,0.8-0.8,1.6-1.4,2.5 c0.9,0.8,1.7,1.5,2.6,2.1c11.7,9.1,23.3,18.2,35.1,27.2c1.7,1.1,2.6,3.1,2.1,5.1c-2.8,15.6-2.8,31.5,0,47.1c0.5,1.9-0.3,4-2,5.1 c-11.8,9.1-23.5,18.3-35.3,27.4c-1.9,1.5-2.4,2.5-1,4.8c8.2,14.1,16.2,28.2,24.2,42.3c1.1,1.9,2,2.4,4.2,1.5c14-5.8,28-11.3,42-17 c1.7-0.9,3.7-0.6,5.1,0.7c11.9,10.2,25.6,18.2,40.4,23.5c2.3,0.9,3.2,2.2,3.5,4.5c2.1,14.6,4.3,29.3,6.5,43.9 c0.2,1.1,0.4,2.1,0.6,3.3h3.2c16,0,32-0.1,48,0.1c2.6,0,3.6-0.7,3.9-3.4c2-14.9,4.3-29.7,6.4-44.5c0.3-1.9,1-3,2.8-3.7 c15.2-5.4,28.8-13.8,41.3-23.9c1.3-1.2,3.3-1.5,4.9-0.6c13.9,5.7,27.8,11.2,41.6,17c2.2,0.9,3.2,0.7,4.5-1.4 c8.1-14.4,16.4-28.6,24.6-42.9c0.4-0.7,0.7-1.4,1.1-2.2c-0.9-0.7-1.6-1.4-2.4-2c-11.7-9.2-23.5-18.4-35.3-27.5c-1.7-1.1-2.5-3.1-2-5 c0.8-5.7,2-11.5,1.8-17.3c-0.2-10.1-1.1-20.1-1.9-30.2c-0.3-1.6,0.3-3.2,1.6-4.1c4.1-3.1,8.1-6.2,12.1-9.4L395.4,182.3z"
        fill="#1a73e8" />
    <path
        d="M170.9,240.1c0.1-38.5,31.1-69.6,69.4-69.5s69.4,31.4,69.2,70c-0.2,38.3-31.4,69.5-69.4,69.2 C201.8,309.7,170.8,278.5,170.9,240.1C170.9,240.2,170.9,240.2,170.9,240.1z"
        fill="#1a73e8" />
</svg>
